<svg width="18" height="18" viewBox="0 0 18 18" fill="none" xmlns="http://www.w3.org/2000/svg">
<path d="M1.3219 4.74733L3.70778 2.40961C3.89416 2.22707 4.19648 2.22713 4.38274 2.40961L6.76853 4.74733C7.06892 5.04158 6.85501 5.54547 6.43104 5.54547H4.99982V14.8961C4.99982 15.1543 4.78615 15.3636 4.52255 15.3636H3.568C3.3044 15.3636 3.09073 15.1543 3.09073 14.8961V5.54547H1.65939C1.23459 5.54547 1.02214 5.041 1.3219 4.74733ZM8.34073 4.14287H15.9771C16.2407 4.14287 16.4544 3.93356 16.4544 3.67534V2.74027C16.4544 2.48205 16.2407 2.27274 15.9771 2.27274H8.34073C8.07713 2.27274 7.86346 2.48205 7.86346 2.74027V3.67534C7.86346 3.93356 8.07713 4.14287 8.34073 4.14287ZM7.86346 7.41559V6.48053C7.86346 6.22231 8.07713 6.013 8.34073 6.013H14.068C14.3316 6.013 14.5453 6.22231 14.5453 6.48053V7.41559C14.5453 7.67382 14.3316 7.88313 14.068 7.88313H8.34073C8.07713 7.88313 7.86346 7.67382 7.86346 7.41559ZM7.86346 14.8961V13.961C7.86346 13.7028 8.07713 13.4935 8.34073 13.4935H10.2498C10.5134 13.4935 10.7271 13.7028 10.7271 13.961V14.8961C10.7271 15.1543 10.5134 15.3636 10.2498 15.3636H8.34073C8.07713 15.3636 7.86346 15.1543 7.86346 14.8961ZM7.86346 11.1558V10.2208C7.86346 9.96256 8.07713 9.75325 8.34073 9.75325H12.1589C12.4225 9.75325 12.6362 9.96256 12.6362 10.2208V11.1558C12.6362 11.4141 12.4225 11.6234 12.1589 11.6234H8.34073C8.07713 11.6234 7.86346 11.4141 7.86346 11.1558Z" fill="#C5C7CD"/>
</svg>
