<svg width="26" height="26" viewBox="0 0 26 26" fill="none" xmlns="http://www.w3.org/2000/svg">
<g clip-path="url(#clip0_306_2)">
<path d="M12.906 -0.0310044C12.8637 -0.0233676 12.822 -0.0130128 12.781 -4.36231e-06C12.5552 0.0505973 12.354 0.177919 12.2116 0.360265C12.0692 0.54261 11.9944 0.768696 12 0.999996V2H3C2.20435 2 1.44129 2.31607 0.87868 2.87868C0.31607 3.44128 0 4.20435 0 5L0 18C0 19.656 1.344 21 3 21H12V21.375L6.562 24.094C6.32171 24.21 6.13736 24.4168 6.0495 24.6687C5.96164 24.9207 5.97747 25.1972 6.0935 25.4375C6.20953 25.6778 6.41627 25.8621 6.66822 25.95C6.92018 26.0379 7.19671 26.022 7.437 25.906L12 23.625V24C12 24.2652 12.1054 24.5196 12.2929 24.7071C12.4804 24.8946 12.7348 25 13 25C13.2652 25 13.5196 24.8946 13.7071 24.7071C13.8946 24.5196 14 24.2652 14 24V23.625L18.563 25.906C18.8033 26.022 19.0798 26.0379 19.3318 25.95C19.5837 25.8621 19.7905 25.6778 19.9065 25.4375C20.0225 25.1972 20.0384 24.9207 19.9505 24.6687C19.8626 24.4168 19.6783 24.21 19.438 24.094L14 21.375V21H23C24.656 21 26 19.656 26 18V5C26 4.20435 25.6839 3.44128 25.1213 2.87868C24.5587 2.31607 23.7956 2 23 2H14V0.999996C14.005 0.857793 13.9797 0.716151 13.9256 0.584532C13.8716 0.452912 13.79 0.334347 13.6865 0.236758C13.5829 0.139168 13.4597 0.0648012 13.3251 0.018626C13.1905 -0.0275491 13.0477 -0.0444694 12.906 -0.0310044ZM2 5H24V18H2V5ZM20.875 6C20.651 6.02408 20.4417 6.12309 20.281 6.281L17 9.56299L14.719 7.28C14.6098 7.16791 14.4757 7.08302 14.3277 7.03218C14.1797 6.98133 14.0218 6.96594 13.8667 6.98724C13.7117 7.00855 13.5638 7.06595 13.435 7.15483C13.3061 7.24372 13.2 7.3616 13.125 7.499L10.156 12.687L8.937 9.62399C8.87781 9.46584 8.77953 9.32526 8.65132 9.21535C8.52312 9.10544 8.36918 9.02978 8.20384 8.99544C8.0385 8.96109 7.86716 8.96918 7.70579 9.01893C7.54443 9.06869 7.39828 9.1585 7.281 9.27999L4.281 12.28C4.18645 12.3745 4.11143 12.4867 4.06024 12.6101C4.00904 12.7336 3.98267 12.866 3.98262 12.9996C3.98257 13.1333 4.00886 13.2657 4.05997 13.3892C4.11108 13.5127 4.18601 13.6249 4.2805 13.7195C4.37499 13.814 4.48717 13.8891 4.61065 13.9403C4.73412 13.9915 4.86648 14.0178 5.00015 14.0179C5.13382 14.0179 5.26619 13.9916 5.3897 13.9405C5.51321 13.8894 5.62545 13.8145 5.72 13.72L7.626 11.814L9.064 15.376C9.13187 15.5546 9.2495 15.7101 9.40298 15.824C9.55645 15.9378 9.73934 16.0053 9.92999 16.0185C10.1206 16.0316 10.3111 15.9899 10.4787 15.8982C10.6464 15.8065 10.7842 15.6686 10.876 15.501L14.22 9.65699L16.282 11.72C16.3753 11.8165 16.487 11.8932 16.6105 11.9456C16.734 11.998 16.8668 12.025 17.001 12.025C17.1352 12.025 17.268 11.998 17.3915 11.9456C17.515 11.8932 17.6267 11.8165 17.72 11.72L21.72 7.72C21.878 7.57375 21.9845 7.38044 22.0238 7.16879C22.0631 6.95714 22.0331 6.73845 21.9382 6.54524C21.8433 6.35203 21.6885 6.1946 21.497 6.09637C21.3054 5.99814 21.0873 5.96434 20.875 6Z" fill="white"/>
</g>
<defs>
<clipPath id="clip0_306_2">
<rect width="26" height="26" fill="white"/>
</clipPath>
</defs>
</svg>
