<svg width="266" height="166" viewBox="0 0 266 166" fill="none" xmlns="http://www.w3.org/2000/svg">
<path d="M92.0686 9.64995C92.0686 13.8274 98.7644 17.214 94.105 17.214C89.4456 17.214 85.6685 13.8274 85.6685 9.64995C85.6685 5.47246 89.4456 2.08594 94.105 2.08594C98.7644 2.08594 92.0686 5.47246 92.0686 9.64995Z" fill="#FE964A"/>
<path d="M158.23 6L159.362 9.4844H163.026L160.062 11.6379L161.194 15.1223L158.23 12.9688L155.266 15.1223L156.398 11.6379L153.434 9.4844H157.098L158.23 6Z" fill="#FE964A"/>
<path d="M34.3783 79.6545C34.3783 79.6545 45.1264 74.3013 47.5646 77.1071C48.9041 78.6486 49.9157 80.5156 48.7161 82.0325C47.7913 83.2018 46.4561 83.3509 44.8917 83.0762C41.5789 82.4944 41.6292 77.8939 42.959 75.0448C44.7951 71.1109 54.5416 73.4329 54.5416 73.4329" stroke="#E87E00" stroke-width="2.01707"/>
<circle cx="229.217" cy="74.2933" r="5.88312" fill="#FFEDEC"/>
<path d="M56.0474 135.992L56.8844 128.772L62.7199 132.472L63.3851 126.415L68.7079 130.082L70.3656 123.534" stroke="#2F78EE" stroke-width="1.68089"/>
<path d="M193.301 21.9252C193.301 21.9252 192.482 17.0644 194.831 16.0956C196.803 15.2817 198.514 18.8811 200.135 17.5761C201.777 16.2543 197.678 14.1603 199.013 12.5794C200.418 10.9155 204.929 12.5794 204.929 12.5794" stroke="#2F78EE" stroke-width="2.01707"/>
<path d="M32.9548 14.6389L54.5612 25.3952L49.161 32.7594L32.9548 14.6389Z" fill="#2F78EE"/>
<circle cx="224.346" cy="94.3124" r="2.52134" fill="#FFEDEC"/>
<path d="M200.116 127.502C202.887 127.781 205.58 123.565 205.269 126.656C204.958 129.747 202.46 132.026 199.689 131.747C196.918 131.468 194.924 128.737 195.235 125.646C195.546 122.555 197.345 127.223 200.116 127.502Z" fill="#2F78EE"/>
<path d="M209.11 38.9922L210.997 44.7995H217.103L212.163 48.3887L214.05 54.196L209.11 50.6069L204.17 54.196L206.057 48.3887L201.117 44.7995H207.223L209.11 38.9922Z" fill="#E87E00"/>
<rect x="82.7998" y="25.8223" width="100" height="100" rx="50" fill="#FF8C00"/>
<g filter="url(#filter0_d_5187_139929)">
<rect x="102.8" y="45.8223" width="60" height="60" rx="30" fill="white" shape-rendering="crispEdges"/>
<path fill-rule="evenodd" clip-rule="evenodd" d="M143.684 68.6884C144.172 69.1765 144.172 69.968 143.684 70.4561L131.184 82.9561C130.696 83.4443 129.904 83.4443 129.416 82.9561L123.166 76.7061C122.678 76.218 122.678 75.4265 123.166 74.9384C123.654 74.4502 124.446 74.4502 124.934 74.9384L130.3 80.3045L141.916 68.6884C142.404 68.2002 143.196 68.2002 143.684 68.6884Z" fill="#111827"/>
</g>
<defs>
<filter id="filter0_d_5187_139929" x="62.7998" y="25.8223" width="140" height="140" filterUnits="userSpaceOnUse" color-interpolation-filters="sRGB">
<feFlood flood-opacity="0" result="BackgroundImageFix"/>
<feColorMatrix in="SourceAlpha" type="matrix" values="0 0 0 0 0 0 0 0 0 0 0 0 0 0 0 0 0 0 127 0" result="hardAlpha"/>
<feOffset dy="20"/>
<feGaussianBlur stdDeviation="20"/>
<feComposite in2="hardAlpha" operator="out"/>
<feColorMatrix type="matrix" values="0 0 0 0 0 0 0 0 0 0 0 0 0 0 0 0 0 0 0.3 0"/>
<feBlend mode="normal" in2="BackgroundImageFix" result="effect1_dropShadow_5187_139929"/>
<feBlend mode="normal" in="SourceGraphic" in2="effect1_dropShadow_5187_139929" result="shape"/>
</filter>
</defs>
</svg>
